<?xml version="1.0" standalone="no"?>
<!DOCTYPE svg PUBLIC "-//W3C//DTD SVG 20010904//EN"
 "http://www.w3.org/TR/2001/REC-SVG-20010904/DTD/svg10.dtd">
<svg version="1.0" xmlns="http://www.w3.org/2000/svg"
 width="267.000000pt" height="189.000000pt" viewBox="0 0 267.000000 189.000000"
 preserveAspectRatio="xMidYMid meet">

<g transform="translate(0.000000,189.000000) scale(0.100000,-0.100000)"
fill="#000000" stroke="none">
<path d="M0 945 l0 -945 869 0 c763 0 870 2 875 15 8 22 301 22 310 0 5 -13
49 -15 311 -15 l305 0 0 945 0 945 -211 0 c-121 0 -218 -4 -229 -10 -13 -7
-21 -7 -25 0 -4 7 -381 10 -1106 10 l-1099 0 0 -945z m1405 470 c76 -10 148
-58 223 -149 48 -58 52 -76 17 -76 -20 0 -25 -5 -26 -27 0 -28 0 -28 -10 -5
-5 13 -6 29 -2 34 3 6 1 8 -5 4 -6 -3 -14 4 -18 16 -7 22 -59 78 -74 78 -4 0
-15 9 -25 20 -10 12 -24 19 -31 16 -6 -2 -16 0 -21 5 -5 5 -45 11 -89 12 -65
2 -87 -2 -126 -21 -27 -13 -48 -28 -48 -33 0 -5 -5 -9 -11 -9 -15 0 -67 -57
-71 -78 -3 -13 -12 -16 -38 -14 -19 2 -36 5 -38 7 -2 2 3 16 12 32 21 42 99
118 151 149 47 27 138 54 165 49 8 -2 38 -6 65 -10z m-1145 -187 c0 6 4 12 9
12 5 0 7 -8 4 -18 -3 -14 -11 -18 -29 -14 -13 2 -24 8 -24 12 0 14 24 18 32 6
5 -8 8 -7 8 2z m50 -8 c0 -11 -4 -20 -10 -20 -5 0 -10 9 -10 20 0 11 5 20 10
20 6 0 10 -9 10 -20z m1152 -17 c57 -20 105 -37 106 -39 2 -1 -9 -88 -24 -192
l-27 -190 -86 -93 -87 -92 -85 94 -85 94 -28 188 c-16 104 -26 190 -24 193 8
8 202 72 220 73 9 1 63 -15 120 -36z m-1102 6 c0 -5 -7 -9 -15 -9 -9 0 -12 6
-9 15 6 15 24 11 24 -6z m30 12 c0 -6 -4 -13 -10 -16 -5 -3 -10 1 -10 9 0 9 5
16 10 16 6 0 10 -4 10 -9z m30 -6 c0 -8 -4 -15 -10 -15 -5 0 -10 7 -10 15 0 8
5 15 10 15 6 0 10 -7 10 -15z m24 -10 c3 -8 1 -15 -4 -15 -6 0 -10 7 -10 15 0
8 2 15 4 15 2 0 6 -7 10 -15z m36 -5 c0 -11 -2 -20 -4 -20 -2 0 -6 9 -9 20 -3
11 -1 20 4 20 5 0 9 -9 9 -20z m26 0 c0 -12 -4 -16 -9 -11 -5 5 -6 14 -3 20
10 15 12 14 12 -9z m1784 16 c0 -3 -4 -8 -10 -11 -5 -3 -10 -1 -10 4 0 6 5 11
10 11 6 0 10 -2 10 -4z m30 -16 c0 -11 -4 -20 -8 -20 -4 0 -8 9 -8 20 0 11 4
20 8 20 4 0 8 -9 8 -20z m30 5 c0 -8 -4 -15 -10 -15 -5 0 -10 7 -10 15 0 8 5
15 10 15 6 0 10 -7 10 -15z m40 0 c0 -8 -7 -15 -15 -15 -8 0 -15 7 -15 15 0 8
7 15 15 15 8 0 15 -7 15 -15z m-1840 -16 c0 -5 -7 -9 -15 -9 -9 0 -12 6 -9 15
6 15 24 11 24 -6z m24 6 c-4 -8 -8 -15 -10 -15 -2 0 -4 7 -4 15 0 8 4 15 10
15 5 0 7 -7 4 -15z m32 -5 c0 -11 -4 -20 -8 -20 -4 0 -8 9 -8 20 0 11 4 20 8
20 4 0 8 -9 8 -20z m1554 -2 c0 -19 -2 -20 -10 -8 -13 19 -13 30 0 30 6 0 10
-10 10 -22z m30 2 c0 -11 -2 -20 -4 -20 -2 0 -6 9 -9 20 -3 11 -1 20 4 20 5 0
9 -9 9 -20z m25 10 c-3 -5 -1 -10 5 -10 6 0 8 -5 4 -11 -4 -7 -10 -7 -16 -1
-9 9 -3 32 8 32 3 0 2 -4 -1 -10z m45 -11 c0 -5 -4 -9 -10 -9 -5 0 -10 7 -10
16 0 8 5 12 10 9 6 -3 10 -10 10 -16z m-1620 -4 c0 -8 -4 -15 -10 -15 -5 0
-10 7 -10 15 0 8 5 15 10 15 6 0 10 -7 10 -15z m34 0 c-4 -8 -10 -15 -15 -15
-5 0 -9 7 -9 15 0 8 7 15 15 15 9 0 12 -6 9 -15z m46 1 c0 -8 -4 -18 -10 -21
-5 -3 -10 3 -10 14 0 12 5 21 10 21 6 0 10 -6 10 -14z m26 -6 c0 -11 -4 -20
-8 -20 -10 0 -11 24 -1 33 9 9 9 10 9 -13z m1324 5 c0 -8 -4 -15 -10 -15 -5 0
-7 7 -4 15 4 8 8 15 10 15 2 0 4 -7 4 -15z m26 -5 c0 -11 -4 -20 -8 -20 -4 0
-8 9 -8 20 0 11 4 20 8 20 4 0 8 -9 8 -20z m34 5 c0 -8 -4 -15 -8 -15 -5 0 -9
7 -9 15 0 8 4 15 9 15 4 0 8 -7 8 -15z m-1298 -15 c16 -17 16 -20 3 -20 -8 0
-15 7 -15 16 0 8 -5 12 -10 9 -6 -4 -8 -11 -5 -16 4 -5 1 -9 -4 -9 -6 0 -11 8
-12 18 0 10 -3 12 -6 4 -5 -12 -23 -7 -23 6 0 17 55 11 72 -8z m1124 1 c0 -13
-7 -19 -18 -18 -10 1 -18 6 -18 12 0 5 -5 3 -10 -5 -8 -13 -10 -13 -10 2 0 9
10 18 23 21 12 2 24 5 27 6 3 0 6 -8 6 -18z m41 -3 c-3 -8 -6 -5 -6 6 -1 11 2
17 5 13 3 -3 4 -12 1 -19z m43 9 c0 -8 -7 -14 -15 -14 -8 0 -15 6 -15 14 0 7
7 13 15 13 8 0 15 -6 15 -13z m-1160 -12 c0 -8 -4 -15 -8 -15 -5 0 -9 7 -9 15
0 8 4 15 9 15 4 0 8 -7 8 -15z m30 6 c0 -6 -4 -13 -10 -16 -5 -3 -10 1 -10 9
0 9 5 16 10 16 6 0 10 -4 10 -9z m30 -12 c0 -11 -4 -17 -10 -14 -5 3 -10 13
-10 21 0 8 5 14 10 14 6 0 10 -9 10 -21z m886 1 c0 -12 -4 -16 -9 -11 -5 5 -6
14 -3 20 10 15 12 14 12 -9z m34 5 c0 -8 -4 -15 -10 -15 -5 0 -10 7 -10 15 0
8 5 15 10 15 6 0 10 -7 10 -15z m30 0 c0 -8 -2 -15 -4 -15 -2 0 -6 7 -10 15
-3 8 -1 15 4 15 6 0 10 -7 10 -15z m-926 -10 c3 -8 1 -15 -4 -15 -6 0 -10 7
-10 15 0 8 2 15 4 15 2 0 6 -7 10 -15z m46 0 c0 -8 -7 -15 -15 -15 -8 0 -15 7
-15 15 0 8 7 15 15 15 8 0 15 -7 15 -15z m23 -5 c-3 -11 -7 -20 -9 -20 -2 0
-4 9 -4 20 0 11 4 20 9 20 5 0 7 -9 4 -20z m687 0 c0 -11 -4 -20 -10 -20 -5 0
-10 9 -10 20 0 11 5 20 10 20 6 0 10 -9 10 -20z m26 0 c0 -11 -4 -20 -8 -20
-4 0 -8 9 -8 20 0 11 4 20 8 20 4 0 8 -9 8 -20z m34 5 c0 -8 -4 -15 -10 -15
-5 0 -10 7 -10 15 0 8 5 15 10 15 6 0 10 -7 10 -15z m-133 -10 c0 -8 -4 -12
-9 -9 -5 3 -6 10 -3 15 9 13 12 11 12 -6z m37 0 c-4 -8 -8 -15 -10 -15 -2 0
-4 7 -4 15 0 8 4 15 10 15 5 0 7 -7 4 -15z m-1237 -45 c1 -11 -2 -20 -5 -20
-4 0 -8 9 -9 20 -1 11 2 20 5 20 4 0 8 -9 9 -20z m33 -2 c0 -16 -3 -19 -11
-11 -6 6 -8 16 -5 22 11 17 16 13 16 -11z m553 16 c14 -5 14 -8 1 -23 -21 -24
-73 -17 -71 10 1 19 37 26 70 13z m688 -3 c-7 -5 -10 -14 -6 -21 5 -8 -5 -10
-36 -8 -49 3 -64 24 -22 31 54 8 79 7 64 -2z m-1211 -10 c0 -6 -4 -13 -10 -16
-5 -3 -10 1 -10 9 0 9 5 16 10 16 6 0 10 -4 10 -9z m34 -6 c-4 -8 -7 -15 -9
-15 -2 0 -5 7 -9 15 -3 9 0 15 9 15 9 0 12 -6 9 -15z m1662 -22 c-11 -11 -19
6 -11 24 8 17 8 17 12 0 3 -10 2 -21 -1 -24z m34 22 c0 -8 -4 -15 -10 -15 -5
0 -10 7 -10 15 0 8 5 15 10 15 6 0 10 -7 10 -15z m-1660 -10 c0 -8 -4 -15 -9
-15 -13 0 -22 16 -14 24 11 11 23 6 23 -9z m30 0 c0 -8 -4 -15 -10 -15 -5 0
-10 7 -10 15 0 8 5 15 10 15 6 0 10 -7 10 -15z m30 0 c0 -8 -4 -15 -10 -15 -5
0 -10 7 -10 15 0 8 5 15 10 15 6 0 10 -7 10 -15z m26 -5 c0 -11 -4 -20 -8 -20
-4 0 -8 9 -8 20 0 11 4 20 8 20 4 0 8 -9 8 -20z m1384 0 c0 -11 -4 -20 -9 -20
-7 0 -8 17 -2 38 4 10 11 -2 11 -18z m49 13 c12 9 13 9 7 0 -4 -8 -2 -13 5
-13 23 0 -2 -14 -26 -16 -19 -1 -25 4 -25 20 0 15 3 17 12 8 9 -9 15 -9 27 1z
m61 -8 c0 -8 -4 -15 -10 -15 -5 0 -10 7 -10 15 0 8 5 15 10 15 6 0 10 -7 10
-15z m-1440 -10 c0 -8 -4 -15 -10 -15 -5 0 -10 7 -10 15 0 8 5 15 10 15 6 0
10 -7 10 -15z m26 -5 c0 -11 -4 -20 -8 -20 -4 0 -8 9 -8 20 0 11 4 20 8 20 4
0 8 -9 8 -20z m1201 13 c-4 -3 -2 -12 4 -20 8 -9 8 -13 1 -13 -6 0 -14 5 -17
10 -6 10 2 30 12 30 4 0 3 -3 0 -7z m40 -13 c1 -11 -2 -20 -5 -20 -4 0 -8 9
-9 20 -1 11 2 20 5 20 4 0 8 -9 9 -20z m30 5 c0 -8 -4 -12 -9 -9 -4 3 -8 9 -8
15 0 5 4 9 8 9 5 0 9 -7 9 -15z m-1237 -16 c0 -6 -4 -7 -10 -4 -5 3 -10 11
-10 16 0 6 5 7 10 4 6 -3 10 -11 10 -16z m50 -1 c10 -21 10 -21 -3 -6 -10 13
-16 15 -25 6 -9 -9 -12 -8 -12 5 0 25 27 21 40 -5z m1042 15 c-10 -4 -10 -8
-2 -18 9 -11 7 -14 -9 -12 -11 0 -17 6 -13 12 3 5 -2 4 -11 -4 -9 -7 -26 -11
-37 -8 -11 3 -20 1 -20 -4 0 -5 -4 -9 -10 -9 -5 0 -10 9 -10 20 0 18 3 19 20
10 15 -8 20 -8 20 2 0 9 3 9 10 -2 6 -9 10 -10 10 -3 0 6 10 14 23 16 32 6 44
6 29 0z m48 -8 c0 -8 -2 -15 -4 -15 -2 0 -6 7 -10 15 -3 8 -1 15 4 15 6 0 10
-7 10 -15z m-1040 -7 c0 -9 3 -8 10 2 5 8 12 11 16 7 10 -9 1 -17 -25 -22 -13
-2 -21 1 -21 11 0 8 5 14 10 14 6 0 10 -6 10 -12z m60 -10 c0 -19 -2 -20 -10
-8 -13 19 -13 30 0 30 6 0 10 -10 10 -22z m26 2 c0 -11 -4 -20 -8 -20 -4 0 -8
9 -8 20 0 11 4 20 8 20 4 0 8 -9 8 -20z m784 -2 c0 -19 -2 -20 -10 -8 -13 19
-13 30 0 30 6 0 10 -10 10 -22z m-717 -4 c-4 -11 -8 -12 -13 -4 -5 9 -9 9 -14
1 -10 -16 -26 -14 -26 4 0 10 10 15 30 15 23 0 28 -4 23 -16z m622 -22 c-8 -9
-25 20 -18 31 3 5 10 2 15 -7 6 -10 7 -20 3 -24z m27 6 c-9 -9 -12 -7 -12 12
0 19 3 21 12 12 9 -9 9 -15 0 -24z m32 17 c-4 -8 -8 -15 -10 -15 -2 0 -4 7 -4
15 0 8 4 15 10 15 5 0 7 -7 4 -15z m-689 -46 c18 -1 23 -3 12 -6 -10 -3 -16
-10 -14 -17 8 -20 -66 -6 -87 17 -20 20 -20 20 20 14 21 -4 53 -7 69 -8z m725
-9 c-24 -24 -95 -28 -103 -6 -6 15 3 17 101 24 l22 2 -20 -20z m-1210 -6 c0
-8 -4 -12 -10 -9 -5 3 -10 10 -10 16 0 5 5 9 10 9 6 0 10 -7 10 -16z m30 1 c0
-8 -2 -15 -4 -15 -2 0 -6 7 -10 15 -3 8 -1 15 4 15 6 0 10 -7 10 -15z m26 -5
c0 -11 -4 -20 -8 -20 -4 0 -8 9 -8 20 0 11 4 20 8 20 4 0 8 -9 8 -20z m-91 0
c3 -5 1 -10 -4 -10 -6 0 -11 5 -11 10 0 6 2 10 4 10 3 0 8 -4 11 -10z m166 -9
c1 -13 2 -13 6 2 6 24 19 22 19 -4 0 -17 -5 -19 -26 -14 -14 4 -27 11 -28 16
-3 6 -10 5 -18 -2 -11 -9 -14 -8 -14 4 0 22 60 20 61 -2z m1365 -1 c0 -11 -4
-20 -8 -20 -4 0 -8 9 -8 20 0 11 4 20 8 20 4 0 8 -9 8 -20z m34 16 c0 -3 -4
-8 -10 -11 -5 -3 -10 -1 -10 4 0 6 5 11 10 11 6 0 10 -2 10 -4z m30 -12 c0 -8
-4 -12 -10 -9 -5 3 -10 10 -10 16 0 5 5 9 10 9 6 0 10 -7 10 -16z m-1320 -16
c0 -19 -2 -20 -10 -8 -8 12 -10 12 -10 1 0 -8 -3 -12 -6 -8 -9 9 3 37 16 37 5
0 10 -10 10 -22z m1156 2 c0 -12 -4 -16 -9 -11 -5 5 -6 14 -3 20 10 15 12 14
12 -9z m37 3 c3 9 13 17 20 17 16 0 19 -26 3 -27 -6 0 -17 -2 -25 -4 -9 -2
-16 4 -18 16 -3 19 -3 19 5 1 8 -18 9 -18 15 -3z m-1163 -8 c0 -8 -4 -15 -10
-15 -5 0 -10 7 -10 15 0 8 5 15 10 15 6 0 10 -7 10 -15z m30 0 c0 -8 -4 -15
-10 -15 -5 0 -10 7 -10 15 0 8 5 15 10 15 6 0 10 -7 10 -15z m1037 -5 c1 -11
-2 -20 -5 -20 -4 0 -8 9 -9 20 -1 11 2 20 5 20 4 0 8 -9 9 -20z m30 5 c0 -8
-4 -15 -9 -15 -4 0 -8 7 -8 15 0 8 4 15 8 15 5 0 9 -7 9 -15z m-1040 -10 c0
-8 -4 -12 -9 -9 -4 3 -8 9 -8 15 0 5 4 9 8 9 5 0 9 -7 9 -15z m30 0 c0 -8 -4
-15 -9 -15 -4 0 -8 7 -8 15 0 8 4 15 8 15 5 0 9 -7 9 -15z m37 0 c-4 -8 -7
-15 -9 -15 -2 0 -5 7 -9 15 -3 9 0 15 9 15 9 0 12 -6 9 -15z m30 0 c-4 -8 -1
-15 5 -15 6 0 11 5 11 10 0 6 5 10 10 10 22 0 8 -26 -15 -28 -19 -1 -25 3 -25
18 0 11 4 20 10 20 5 0 7 -7 4 -15z m806 -11 c0 -8 -4 -12 -10 -9 -5 3 -10 13
-10 21 0 8 5 12 10 9 6 -3 10 -13 10 -21z m30 11 c0 -8 -4 -15 -10 -15 -5 0
-10 7 -10 15 0 8 5 15 10 15 6 0 10 -7 10 -15z m27 0 c0 -8 -4 -15 -9 -15 -4
0 -8 7 -8 15 0 8 4 15 8 15 5 0 9 -7 9 -15z m-800 -15 c1 -11 -2 -20 -8 -20
-5 0 -9 9 -9 20 0 11 4 20 8 20 4 0 8 -9 9 -20z m639 0 c0 -14 -7 -20 -23 -20
-14 0 -23 6 -23 16 0 10 6 14 15 10 8 -3 15 -1 15 4 0 6 4 10 8 10 4 0 8 -9 8
-20z m74 3 c0 -16 -16 -17 -26 -2 -5 8 -9 8 -14 -1 -5 -8 -9 -7 -13 4 -5 13 0
16 23 14 17 -1 30 -8 30 -15z m-738 -39 c24 -4 35 -11 32 -19 -3 -7 0 -16 5
-20 6 -3 8 -12 4 -18 -14 -22 -12 -57 3 -57 8 0 12 -4 9 -10 -11 -17 -51 -11
-87 13 -18 13 -44 23 -56 22 -20 -1 -23 3 -20 28 2 17 9 33 17 35 10 3 11 0 5
-9 -15 -25 -13 -37 8 -31 11 3 24 -1 29 -9 7 -11 9 -9 9 8 0 12 5 25 11 29 9
5 10 -4 5 -31 -5 -23 -4 -35 2 -31 6 3 12 22 14 41 4 33 2 35 -25 35 -15 0
-26 4 -22 9 3 5 -5 12 -17 14 -38 7 31 8 74 1z m744 -9 c-16 -16 -91 -21 -101
-6 -5 9 25 16 88 19 25 2 27 0 13 -13z m-987 -17 c-1 -35 -14 -64 -23 -50 -3
6 -13 9 -21 5 -11 -4 -13 -1 -9 11 3 9 14 15 23 14 11 -2 15 4 14 20 -2 12 2
22 7 22 6 0 10 -10 9 -22z m31 -3 c0 -8 -4 -15 -10 -15 -5 0 -10 7 -10 15 0 8
5 15 10 15 6 0 10 -7 10 -15z m28 -20 c-1 -19 -6 -35 -10 -35 -4 0 -8 16 -8
35 0 19 5 35 10 35 6 0 10 -16 8 -35z m52 16 c13 -25 13 -64 0 -56 -6 4 -10
12 -9 18 1 7 1 21 0 32 -2 18 -3 17 -12 -4 -5 -14 -7 -31 -5 -38 3 -7 1 -13
-5 -13 -5 0 -8 18 -7 40 3 43 21 53 38 21z m1090 -1 c0 -11 -4 -20 -9 -20 -5
0 -7 9 -4 20 3 11 7 20 9 20 2 0 4 -9 4 -20z m30 5 c0 -8 -2 -15 -4 -15 -2 0
-6 7 -10 15 -3 8 -1 15 4 15 6 0 10 -7 10 -15z m30 -1 c0 -8 -4 -12 -10 -9 -5
3 -10 10 -10 16 0 5 5 9 10 9 6 0 10 -7 10 -16z m-154 -12 c0 -13 -9 -18 -33
-19 -18 0 -34 5 -37 13 -3 8 -1 14 4 14 6 0 10 -6 11 -12 0 -10 2 -10 6 0 4 9
9 10 18 2 9 -8 14 -6 19 5 7 20 12 19 12 -3z m40 9 c16 13 30 6 19 -10 -11
-18 -45 -13 -44 7 0 11 2 12 6 4 4 -10 8 -10 19 -1z m-229 -33 c0 -13 -1 -17
-4 -10 -3 6 -10 9 -16 5 -22 -14 -45 -13 -51 2 -3 8 -1 15 4 15 6 0 10 -5 10
-11 0 -8 5 -8 15 1 8 7 15 9 15 4 0 -4 5 -3 12 4 7 7 12 12 13 12 0 0 1 -10 2
-22z m33 7 c0 -8 -2 -15 -4 -15 -2 0 -6 7 -10 15 -3 8 -1 15 4 15 6 0 10 -7
10 -15z m26 -12 c-10 -10 -19 5 -10 18 6 11 8 11 12 0 2 -7 1 -15 -2 -18z m28
12 c3 -8 1 -15 -4 -15 -6 0 -10 7 -10 15 0 8 2 15 4 15 2 0 6 -7 10 -15z
m-974 -4 c0 -6 -4 -13 -10 -16 -5 -3 -10 1 -10 9 0 9 5 16 10 16 6 0 10 -4 10
-9z m916 -56 c-31 -17 -55 -19 -83 -8 -14 6 -8 9 22 14 22 3 51 7 65 8 25 1
25 1 -4 -14z m-803 -11 c-8 -4 -10 -16 -7 -33 4 -16 1 -32 -5 -36 -8 -4 -11 4
-9 27 2 40 6 48 21 47 9 0 9 -2 0 -5z m25 -22 c-10 -12 -10 -14 0 -8 6 4 12 2
12 -3 0 -6 -5 -11 -11 -11 -6 0 -9 -7 -5 -15 3 -8 2 -15 -3 -15 -13 0 -18 55
-6 67 16 16 28 3 13 -15z m929 6 c-3 -8 -6 -5 -6 6 -1 11 2 17 5 13 3 -3 4
-12 1 -19z m53 12 c0 -5 -4 -10 -10 -10 -5 0 -10 5 -10 10 0 6 5 10 10 10 6 0
10 -4 10 -10z m-943 -35 c-1 -19 -7 -35 -14 -35 -6 0 -10 8 -8 18 2 9 4 25 4
35 1 9 5 17 10 17 5 0 9 -16 8 -35z m33 26 c0 -6 -4 -13 -10 -16 -5 -3 -10 1
-10 9 0 9 5 16 10 16 6 0 10 -4 10 -9z m719 -5 c-12 -12 -59 -17 -59 -6 0 6 3
9 8 7 4 -3 16 -1 27 3 19 7 33 5 24 -4z m96 4 c3 -5 1 -10 -4 -10 -6 0 -11 5
-11 10 0 6 2 10 4 10 3 0 8 -4 11 -10z m-789 -31 c3 -35 4 -39 13 -39 5 0 7 9
4 19 -3 11 0 28 6 38 9 15 10 11 11 -21 0 -22 3 -36 8 -32 4 4 7 19 7 33 0 15
7 28 15 30 10 3 11 2 4 -4 -6 -4 -9 -22 -7 -40 4 -24 10 -33 25 -33 10 0 17
-3 14 -8 -2 -4 18 -24 46 -45 37 -27 54 -34 63 -27 9 8 25 -3 58 -40 25 -27
50 -50 55 -50 6 0 25 18 43 41 19 25 35 36 39 29 4 -7 14 -5 31 7 13 10 36 24
50 32 14 7 33 26 43 42 15 25 23 29 62 29 l44 0 -32 -36 c-79 -88 -138 -125
-229 -143 -122 -25 -220 12 -326 123 -56 59 -67 76 -65 99 4 31 16 28 18 -4z
m571 9 c-3 -8 -6 -5 -6 6 -1 11 2 17 5 13 3 -3 4 -12 1 -19z m33 7 c0 -8 -4
-15 -10 -15 -5 0 -10 7 -10 15 0 8 5 15 10 15 6 0 10 -7 10 -15z m-50 -5 c0
-5 -2 -10 -4 -10 -3 0 -8 5 -11 10 -3 6 -1 10 4 10 6 0 11 -4 11 -10z m198
-21 c-3 -8 -7 -3 -11 10 -4 17 -3 21 5 13 5 -5 8 -16 6 -23z m-785 -9 c-3 -11
-7 -20 -9 -20 -2 0 -4 9 -4 20 0 11 4 20 9 20 5 0 7 -9 4 -20z m762 9 c-7 -11
-35 -12 -35 -1 0 4 9 8 20 9 11 1 18 -2 15 -8z m-371 -148 c5 -1 -1 -12 -14
-26 -24 -26 -40 -22 -60 14 -8 16 8 18 74 12z m-784 -136 c0 -14 -4 -25 -10
-25 -5 0 -10 7 -10 15 0 8 -4 15 -10 15 -5 0 -10 -25 -10 -55 0 -30 5 -55 10
-55 6 0 10 7 10 15 0 8 5 15 10 15 6 0 10 -11 10 -25 0 -21 -5 -25 -30 -25
l-30 0 0 75 0 75 30 0 c25 0 30 -4 30 -25z m88 -53 l3 -73 -33 3 c-33 3 -33 3
-36 62 -4 76 1 88 35 84 27 -3 28 -5 31 -76z m49 41 l10 -38 9 34 c18 65 34
49 34 -33 0 -44 -4 -76 -10 -76 -5 0 -10 15 -11 33 0 17 -3 25 -6 17 -14 -44
-16 -45 -23 -20 l-8 25 -1 -27 c-1 -16 -5 -28 -11 -28 -6 0 -10 32 -10 75 0
81 12 98 27 38z m123 27 c0 -5 -7 -10 -15 -10 -9 0 -15 -9 -15 -25 0 -16 6
-25 16 -25 8 0 12 -5 9 -10 -4 -6 -11 -8 -16 -5 -5 4 -9 -5 -9 -19 0 -16 6
-26 15 -26 8 0 15 -4 15 -10 0 -5 -11 -10 -25 -10 -24 0 -25 2 -25 75 0 73 1
75 25 75 14 0 25 -4 25 -10z m36 -12 l7 -23 8 23 c5 12 13 22 19 22 7 0 9 -8
3 -22 -4 -13 -8 -36 -8 -53 0 -16 4 -40 8 -52 5 -14 4 -23 -2 -23 -5 0 -13 10
-17 23 l-7 22 -10 -22 c-6 -13 -14 -23 -19 -23 -5 0 -6 10 -1 23 4 12 8 36 8
52 0 17 -4 40 -8 53 -5 13 -4 22 2 22 5 0 13 -10 17 -22z m120 -2 c9 -38 1
-61 -24 -64 -17 -3 -22 -10 -22 -33 0 -16 -4 -29 -10 -29 -6 0 -10 32 -10 75
l0 75 30 0 c23 0 31 -5 36 -24z m84 -52 l0 -75 -32 3 c-33 3 -33 3 -36 62 -4
75 1 86 38 86 l30 0 0 -76z m120 61 c0 -8 0 -18 1 -22 0 -4 -4 -9 -10 -11 -6
-2 -11 3 -11 12 0 9 -4 16 -10 16 -5 0 -10 -25 -10 -55 0 -30 5 -55 10 -55 6
0 10 7 10 15 0 8 5 15 10 15 6 0 10 -11 10 -25 0 -21 -5 -25 -30 -25 l-30 0 0
75 0 75 30 0 c20 0 30 -5 30 -15z m45 -12 l7 -28 10 28 c5 15 14 27 19 27 12
0 12 0 -6 -50 -8 -23 -15 -55 -15 -71 0 -49 -17 -32 -23 24 -4 28 -9 62 -13
75 -4 12 -2 22 4 22 5 0 13 -12 17 -27z m116 -18 c3 -106 3 -105 -31 -105
l-30 0 0 75 0 75 30 0 c29 0 30 -2 31 -45z m79 35 c0 -5 -9 -10 -20 -10 -24 0
-28 -38 -5 -46 18 -7 20 -25 3 -21 -7 1 -14 -8 -16 -20 -3 -18 1 -23 17 -23
12 0 21 -4 21 -10 0 -5 -13 -10 -30 -10 l-30 0 0 75 0 75 30 0 c17 0 30 -4 30
-10z m80 -30 c0 -23 -5 -40 -11 -40 -6 0 -9 -6 -6 -12 24 -66 10 -84 -16 -20
l-15 37 -1 -38 c-1 -23 -5 -36 -11 -32 -11 7 -14 128 -3 138 3 4 19 7 35 7 26
0 28 -3 28 -40z m120 15 c0 -14 -4 -25 -10 -25 -5 0 -10 7 -10 15 0 8 -4 15
-10 15 -16 0 -11 -23 10 -50 11 -14 20 -37 20 -52 0 -24 -4 -28 -30 -28 -25 0
-30 4 -30 25 0 14 5 25 10 25 6 0 10 -7 10 -15 0 -8 5 -15 10 -15 16 0 11 25
-10 53 -11 14 -20 37 -20 51 0 22 4 26 30 26 25 0 30 -4 30 -25z m70 15 c0 -5
-7 -10 -15 -10 -9 0 -15 -10 -15 -26 0 -14 4 -23 9 -19 5 3 12 1 16 -5 3 -5
-1 -10 -9 -10 -10 0 -16 -9 -16 -25 0 -16 6 -25 15 -25 8 0 15 -4 15 -10 0 -5
-11 -10 -25 -10 -24 0 -25 2 -25 75 0 73 1 75 25 75 14 0 25 -4 25 -10z m88
-17 c2 -13 -1 -23 -7 -23 -6 0 -11 7 -11 15 0 8 -7 15 -15 15 -12 0 -15 -13
-15 -55 0 -42 3 -55 15 -55 8 0 15 7 15 15 0 8 5 15 11 15 6 0 9 -10 7 -22 -2
-18 -11 -24 -35 -26 l-33 -3 0 69 c0 38 3 72 7 76 4 4 19 6 33 4 17 -2 26 -10
28 -25z m38 -43 c-2 -45 1 -60 11 -60 9 0 13 17 13 65 0 37 4 65 10 65 6 0 10
-32 10 -76 l0 -75 -32 3 -33 3 2 65 c2 84 1 82 12 76 5 -4 8 -33 7 -66z m130
35 c0 -16 -4 -36 -9 -42 -6 -8 -5 -24 2 -44 8 -23 8 -30 -1 -27 -6 2 -17 20
-24 39 l-12 34 -1 -37 c-1 -21 -5 -38 -11 -38 -6 0 -10 32 -10 76 l0 75 33 -3
c28 -3 32 -7 33 -33z m38 -42 c-2 -73 -2 -73 -13 -73 -10 0 -13 128 -3 144 10
18 18 -16 16 -71z m76 67 c0 -5 -4 -10 -10 -10 -6 0 -10 -28 -10 -65 0 -37 -4
-65 -10 -65 -6 0 -10 28 -10 65 0 37 -4 65 -10 65 -5 0 -10 5 -10 10 0 6 14
10 30 10 17 0 30 -4 30 -10z m37 -17 c10 -25 11 -26 12 -6 1 21 18 40 27 31 2
-3 -3 -24 -11 -48 -8 -23 -15 -55 -15 -71 0 -47 -17 -33 -23 19 -4 26 -9 59
-13 75 -3 15 -2 27 3 27 5 0 14 -12 20 -27z"/>
<path d="M1298 1122 l-35 -27 26 -39 c14 -21 27 -33 29 -27 2 6 -6 23 -17 37
l-21 26 25 20 c14 11 32 17 40 14 9 -3 12 0 8 10 -7 20 -15 18 -55 -14z"/>
<path d="M1375 1039 c-4 -6 -5 -12 -2 -15 2 -3 7 2 10 11 7 17 1 20 -8 4z"/>
<path d="M1335 1010 c-3 -5 -1 -10 4 -10 6 0 11 5 11 10 0 6 -2 10 -4 10 -3 0
-8 -4 -11 -10z"/>
<path d="M1380 945 c0 -7 30 -13 34 -7 3 4 -4 9 -15 9 -10 1 -19 0 -19 -2z"/>
<path d="M1330 895 c-7 -9 -21 -13 -31 -10 -14 5 -17 2 -13 -9 8 -22 24 -19
59 9 21 17 25 25 14 25 -9 0 -22 -7 -29 -15z"/>
<path d="M1010 861 c0 -5 7 -12 16 -15 14 -5 15 -4 4 9 -14 17 -20 19 -20 6z"/>
<path d="M1004 824 c3 -9 6 -23 6 -32 0 -14 2 -14 9 -3 10 16 3 51 -11 51 -6
0 -7 -7 -4 -16z"/>
<path d="M640 375 c0 -42 3 -55 15 -55 12 0 15 13 15 55 0 42 -3 55 -15 55
-12 0 -15 -13 -15 -55z"/>
<path d="M972 405 c4 -33 21 -33 25 0 3 18 -1 25 -12 25 -12 0 -15 -7 -13 -25z"/>
<path d="M1050 375 c0 -42 3 -55 15 -55 12 0 15 13 15 55 0 42 -3 55 -15 55
-12 0 -15 -13 -15 -55z"/>
<path d="M1340 410 c0 -11 5 -20 10 -20 6 0 10 9 10 20 0 11 -4 20 -10 20 -5
0 -10 -9 -10 -20z"/>
<path d="M1340 345 c0 -14 5 -25 10 -25 6 0 10 11 10 25 0 14 -4 25 -10 25 -5
0 -10 -11 -10 -25z"/>
<path d="M1490 410 c0 -11 7 -20 15 -20 8 0 15 9 15 20 0 11 -7 20 -15 20 -8
0 -15 -9 -15 -20z"/>
<path d="M1940 403 c0 -25 1 -26 16 -11 9 9 13 21 10 27 -13 20 -26 11 -26
-16z"/>
</g>
</svg>
