<?xml version="1.0" standalone="no"?>
<!DOCTYPE svg PUBLIC "-//W3C//DTD SVG 20010904//EN"
 "http://www.w3.org/TR/2001/REC-SVG-20010904/DTD/svg10.dtd">
<svg version="1.0" xmlns="http://www.w3.org/2000/svg"
 width="200.000000pt" height="200.000000pt" viewBox="0 0 200.000000 200.000000"
 preserveAspectRatio="xMidYMid meet">

<g transform="translate(0.000000,200.000000) scale(0.100000,-0.100000)"
fill="#000000" stroke="none">
<path d="M290 1618 c0 -8 131 -241 235 -418 85 -146 135 -233 135 -236 0 -2
20 -37 43 -77 24 -39 68 -114 97 -165 29 -51 57 -91 63 -89 6 2 31 38 56 81
l45 78 -20 37 c-37 64 -210 364 -242 419 -18 29 -32 55 -32 57 0 2 -16 30 -35
62 -19 32 -35 61 -35 66 0 4 71 6 157 5 l157 -3 54 -92 54 -93 83 0 84 0 -106
183 c-58 100 -110 185 -116 189 -19 12 -677 8 -677 -4z"/>
<path d="M1058 1612 c4 -9 27 -52 51 -95 l45 -77 123 0 c81 0 123 -4 123 -11
0 -9 -59 -114 -127 -226 -12 -21 -21 -23 -130 -25 l-117 -3 -53 -90 -52 -90
113 -5 114 -5 -120 -205 c-65 -113 -121 -210 -124 -216 -5 -11 86 -184 96
-184 3 0 87 143 187 318 100 174 261 454 357 620 97 167 176 306 176 308 0 2
-151 4 -335 4 -316 0 -334 -1 -327 -18z"/>
</g>
</svg>
