<?xml version="1.0" standalone="no"?>
<!DOCTYPE svg PUBLIC "-//W3C//DTD SVG 20010904//EN"
 "http://www.w3.org/TR/2001/REC-SVG-20010904/DTD/svg10.dtd">
<svg version="1.0" xmlns="http://www.w3.org/2000/svg"
 width="200.000000pt" height="200.000000pt" viewBox="0 0 200.000000 200.000000"
 preserveAspectRatio="xMidYMid meet">

<g transform="translate(0.000000,200.000000) scale(0.100000,-0.100000)"
fill="#000000" stroke="none">
<path d="M667 1133 c-4 -3 -7 -17 -7 -30 0 -12 -4 -23 -10 -23 -5 0 -10 -9
-10 -20 0 -11 5 -20 10 -20 6 0 10 -30 10 -70 0 -63 2 -70 20 -70 18 0 20 7
20 66 0 46 5 70 16 81 14 15 14 17 0 25 -20 11 -21 38 -1 38 9 0 12 6 9 15 -6
15 -45 21 -57 8z"/>
<path d="M982 1128 c-8 -8 -12 -47 -12 -109 0 -90 2 -99 22 -113 12 -9 28 -16
35 -16 22 0 53 39 53 65 0 18 -5 25 -20 25 -11 0 -19 -3 -19 -7 4 -25 -3 -43
-16 -43 -20 0 -28 38 -21 107 3 32 5 61 6 66 0 16 28 6 33 -13 7 -26 37 -26
37 -1 0 42 -68 69 -98 39z"/>
<path d="M1230 1021 c0 -118 0 -121 23 -121 12 0 33 0 46 -1 33 0 41 16 41 88
0 68 -18 98 -51 88 -19 -6 -20 -4 -23 45 -1 8 -9 16 -19 18 -15 3 -17 -8 -17
-117z m70 -36 c0 -42 -3 -55 -15 -55 -12 0 -15 13 -15 55 0 42 3 55 15 55 12
0 15 -13 15 -55z"/>
<path d="M745 1071 c-3 -2 -5 -42 -5 -88 0 -76 2 -83 20 -83 18 0 20 7 20 70
0 56 3 70 15 70 12 0 15 -14 15 -70 0 -63 2 -70 20 -70 18 0 20 7 20 79 0 51
-4 82 -12 89 -13 10 -84 13 -93 3z"/>
<path d="M1380 1060 c-24 -24 -28 -115 -7 -144 24 -33 97 -17 97 20 0 16 -26
19 -35 4 -12 -20 -35 -10 -35 15 0 22 4 25 35 25 32 0 35 2 35 30 0 32 -30 70
-55 70 -8 0 -24 -9 -35 -20z m45 -48 c-22 -5 -29 3 -21 25 7 17 8 17 22 -2 13
-18 13 -20 -1 -23z"/>
<path d="M1546 1071 c-3 -5 -15 -7 -26 -4 -19 5 -20 0 -20 -81 0 -70 3 -86 15
-86 11 0 15 13 15 54 0 64 7 86 26 86 8 0 14 9 14 20 0 21 -14 27 -24 11z"/>
<path d="M1100 1061 c0 -5 9 -47 20 -92 20 -85 19 -99 -6 -99 -23 0 -11 -24
13 -28 29 -4 39 14 57 100 8 42 18 88 22 102 5 20 2 26 -9 26 -17 0 -21 -11
-33 -75 l-8 -40 -11 55 c-7 39 -16 56 -28 58 -9 2 -17 -1 -17 -7z"/>
<path d="M440 735 c-23 -28 17 -72 42 -47 8 8 5 9 -9 6 -13 -4 -23 0 -27 11
-9 23 3 38 25 32 11 -3 17 -1 13 4 -8 14 -30 11 -44 -6z"/>
<path d="M560 718 c0 -21 2 -38 4 -38 9 0 12 50 5 62 -6 8 -9 -1 -9 -24z"/>
<path d="M720 735 c0 -9 7 -18 15 -21 24 -10 17 -26 -7 -19 -18 6 -20 5 -11
-5 6 -7 19 -10 27 -7 20 8 21 37 1 37 -8 0 -15 5 -15 11 0 6 7 9 15 5 8 -3 15
-1 15 4 0 6 -9 10 -20 10 -11 0 -20 -7 -20 -15z"/>
<path d="M1130 735 c0 -9 7 -18 15 -21 23 -9 18 -27 -6 -21 -16 4 -19 3 -11
-5 6 -6 18 -8 26 -5 20 8 21 37 1 37 -8 0 -15 5 -15 11 0 6 7 9 15 5 8 -3 15
-1 15 4 0 6 -9 10 -20 10 -11 0 -20 -7 -20 -15z"/>
<path d="M1363 715 c0 -22 2 -30 4 -17 2 12 2 30 0 40 -3 9 -5 -1 -4 -23z"/>
<path d="M1410 713 c0 -43 6 -41 13 5 3 17 1 32 -4 32 -5 0 -9 -16 -9 -37z"/>
<path d="M1560 741 c0 -5 -9 -11 -21 -14 -28 -7 -21 -41 9 -45 19 -3 22 1 22
32 0 20 -2 36 -5 36 -3 0 -5 -4 -5 -9z m0 -37 c0 -9 -5 -14 -12 -12 -18 6 -21
28 -4 28 9 0 16 -7 16 -16z"/>
<path d="M1010 716 c0 -14 4 -27 8 -30 5 -3 9 8 9 24 0 17 -4 30 -9 30 -4 0
-8 -11 -8 -24z"/>
<path d="M510 707 c6 -16 7 -33 4 -39 -4 -6 -2 -8 3 -5 6 4 16 22 22 39 9 28
9 30 -2 16 -12 -15 -14 -15 -25 0 -9 14 -10 11 -2 -11z"/>
<path d="M594 722 c4 -7 2 -19 -4 -27 -9 -11 -9 -15 -1 -15 18 0 25 30 11 43
-10 9 -11 9 -6 -1z"/>
<path d="M622 708 c2 -14 11 -24 23 -25 16 -1 16 -1 3 3 -10 3 -18 12 -18 20
0 17 16 19 23 2 3 -8 6 -6 6 5 1 11 -6 17 -20 17 -15 0 -20 -5 -17 -22z"/>
<path d="M680 705 c0 -14 2 -25 4 -25 2 0 6 11 8 25 3 14 1 25 -3 25 -5 0 -9
-11 -9 -25z"/>
<path d="M778 718 c-7 -17 17 -46 29 -34 3 3 1 6 -5 6 -6 0 -12 10 -14 23 -3
18 -4 19 -10 5z"/>
<path d="M806 715 c4 -8 8 -15 10 -15 2 0 4 7 4 15 0 8 -4 15 -10 15 -5 0 -7
-7 -4 -15z"/>
<path d="M834 715 c-11 -28 26 -50 42 -24 4 8 0 9 -15 4 -15 -4 -21 -2 -21 9
0 8 8 17 18 19 16 4 16 5 -1 6 -10 0 -20 -6 -23 -14z"/>
<path d="M891 708 c-1 -22 4 -28 19 -28 15 0 20 6 19 28 -2 23 -2 24 -6 5 -2
-13 -8 -23 -13 -23 -5 0 -11 10 -13 23 -4 19 -4 18 -6 -5z"/>
<path d="M950 705 c0 -14 2 -25 4 -25 2 0 6 11 8 25 3 14 1 25 -3 25 -5 0 -9
-11 -9 -25z"/>
<path d="M1051 712 c6 -13 8 -30 5 -38 -3 -8 -2 -13 3 -10 5 3 14 21 20 38 9
28 9 30 -2 16 -12 -15 -14 -15 -25 0 -10 14 -10 13 -1 -6z"/>
<path d="M1192 705 c0 -16 2 -22 5 -12 2 9 2 23 0 30 -3 6 -5 -1 -5 -18z"/>
<path d="M1211 703 c2 -24 2 -25 6 -5 2 12 8 22 13 22 5 0 11 -10 13 -22 l4
-23 2 23 c0 12 5 22 10 22 5 0 12 -10 14 -22 4 -20 4 -19 6 5 1 25 -2 27 -34
27 -32 0 -35 -2 -34 -27z"/>
<path d="M1300 695 c0 -34 1 -34 20 -18 11 10 20 25 20 35 0 11 -8 18 -20 18
-16 0 -20 -7 -20 -35z m30 10 c0 -8 -4 -15 -10 -15 -5 0 -10 7 -10 15 0 8 5
15 10 15 6 0 10 -7 10 -15z"/>
<path d="M1382 705 c0 -16 2 -22 5 -12 2 9 2 23 0 30 -3 6 -5 -1 -5 -18z"/>
<path d="M1442 705 c0 -16 2 -22 5 -12 2 9 2 23 0 30 -3 6 -5 -1 -5 -18z"/>
<path d="M1472 708 c2 -12 9 -23 16 -24 7 -1 8 0 2 3 -12 6 -13 33 -1 33 5 0
12 -6 14 -12 3 -8 6 -6 6 5 1 11 -6 17 -20 17 -15 0 -20 -5 -17 -22z"/>
</g>
</svg>
