<?xml version="1.0" standalone="no"?>
<!DOCTYPE svg PUBLIC "-//W3C//DTD SVG 20010904//EN"
 "http://www.w3.org/TR/2001/REC-SVG-20010904/DTD/svg10.dtd">
<svg version="1.0" xmlns="http://www.w3.org/2000/svg"
 width="200.000000pt" height="200.000000pt" viewBox="0 0 200.000000 200.000000"
 preserveAspectRatio="xMidYMid meet">

<g transform="translate(0.000000,200.000000) scale(0.100000,-0.100000)"
fill="#000000" stroke="none">
<path d="M810 1421 c-91 -20 -220 -67 -233 -85 -4 -6 -6 -26 -4 -43 l3 -33
-76 -1 -75 -1 75 -19 c41 -10 94 -21 118 -25 l42 -6 0 40 c0 40 1 41 55 61 73
27 210 51 295 51 88 0 228 -25 299 -53 52 -21 56 -25 56 -55 l0 -33 46 6 c25
4 70 12 100 20 l54 13 -57 1 -58 1 0 40 c0 39 -2 42 -47 61 -122 52 -213 71
-363 75 -115 3 -162 0 -230 -15z"/>
<path d="M70 1281 c0 -15 78 -109 101 -121 11 -6 93 -16 182 -21 234 -14 235
-16 7 -18 l-204 -1 44 -46 45 -46 120 5 c122 4 131 -5 17 -18 -34 -4 -64 -11
-67 -15 -3 -5 15 -21 39 -35 l45 -26 153 10 152 11 46 -44 c53 -51 109 -82
181 -97 66 -14 84 -1 49 36 -20 21 -22 28 -11 35 10 6 29 -3 59 -26 51 -38 55
-40 71 -20 9 11 3 21 -30 49 -25 20 -39 39 -35 46 9 13 33 2 88 -41 20 -15 42
-26 50 -23 27 10 15 37 -29 68 -43 31 -56 57 -28 57 8 0 35 -16 60 -35 45 -34
79 -38 73 -7 -2 8 -22 29 -45 46 -23 17 -71 52 -107 79 -35 26 -69 47 -74 47
-6 0 -33 -16 -62 -35 -55 -37 -83 -42 -125 -23 -18 8 -25 19 -25 39 0 22 11
36 57 68 31 23 52 41 47 41 -5 0 -50 -14 -100 -30 l-92 -31 -313 61 c-173 33
-320 63 -326 65 -7 2 -13 0 -13 -4z"/>
<path d="M1577 1222 l-348 -64 -96 36 c-52 20 -104 36 -115 36 -21 0 -163 -98
-165 -115 -1 -5 7 -13 17 -17 13 -5 35 3 71 27 72 49 99 47 183 -17 38 -29 85
-64 104 -78 28 -20 54 -50 57 -67 1 -1 72 -7 158 -13 l158 -11 45 26 c24 14
44 30 44 34 0 5 -26 11 -58 15 -119 13 -118 24 3 19 l120 -5 45 46 44 46 -209
2 -210 1 135 9 c242 15 258 18 288 43 30 25 88 103 81 108 -2 2 -161 -26 -352
-61z"/>
<path d="M1325 923 c-12 -2 -28 -21 -40 -46 -25 -55 -167 -196 -227 -227 l-48
-25 -47 25 c-54 29 -172 143 -223 215 -30 43 -41 50 -73 53 -47 4 -47 -6 1
-88 51 -88 161 -195 259 -254 l83 -48 77 43 c103 58 225 180 276 277 26 48 34
72 25 73 -7 0 -20 2 -28 3 -8 1 -24 0 -35 -1z"/>
</g>
</svg>
