<?xml version="1.0" standalone="no"?>
<!DOCTYPE svg PUBLIC "-//W3C//DTD SVG 20010904//EN"
 "http://www.w3.org/TR/2001/REC-SVG-20010904/DTD/svg10.dtd">
<svg version="1.0" xmlns="http://www.w3.org/2000/svg"
 width="200.000000pt" height="200.000000pt" viewBox="0 0 200.000000 200.000000"
 preserveAspectRatio="xMidYMid meet">

<g transform="translate(0.000000,200.000000) scale(0.100000,-0.100000)"
fill="#000000" stroke="none">
<path d="M0 1000 l0 -1000 1000 0 1000 0 0 1000 0 1000 -1000 0 -1000 0 0
-1000z m940 150 c0 -16 -4 -30 -10 -30 -5 0 -10 14 -10 30 0 17 5 30 10 30 6
0 10 -13 10 -30z m-735 -241 c24 -1 26 -3 8 -6 -21 -4 -23 -10 -23 -75 0 -51
-3 -69 -12 -66 -8 3 -14 29 -16 71 -2 52 -6 67 -18 67 -8 0 -13 4 -10 9 4 5
14 8 24 6 9 -2 31 -4 47 -6z m205 -66 c34 -74 36 -83 16 -83 -8 0 -17 11 -20
25 -5 20 -12 25 -40 25 -28 0 -35 -5 -40 -25 -4 -14 -13 -25 -21 -25 -8 0 -15
2 -15 5 0 11 52 130 62 142 15 19 26 8 58 -64z m140 1 l0 -64 30 0 c17 0 30
-4 30 -10 0 -5 -20 -10 -45 -10 l-45 0 0 73 c0 41 3 77 6 80 16 15 24 -9 24
-69z m243 4 c15 -35 27 -69 27 -75 0 -22 -20 -14 -30 12 -14 36 -66 36 -80 -1
-6 -14 -15 -24 -21 -22 -15 5 -14 12 17 83 35 84 51 84 87 3z"/>
<path d="M356 855 c-9 -23 -8 -25 9 -25 17 0 19 9 6 28 -7 11 -10 10 -15 -3z"/>
<path d="M736 854 c-9 -23 -8 -24 13 -24 14 0 18 5 14 20 -6 24 -19 26 -27 4z"/>
</g>
</svg>
