<?xml version="1.0" standalone="no"?>
<!DOCTYPE svg PUBLIC "-//W3C//DTD SVG 20010904//EN"
 "http://www.w3.org/TR/2001/REC-SVG-20010904/DTD/svg10.dtd">
<svg version="1.0" xmlns="http://www.w3.org/2000/svg"
 width="225.000000pt" height="225.000000pt" viewBox="0 0 225.000000 225.000000"
 preserveAspectRatio="xMidYMid meet">

<g transform="translate(0.000000,225.000000) scale(0.100000,-0.100000)"
fill="#000000" stroke="none">
<path d="M1715 1856 c-337 -138 -689 -372 -939 -622 -151 -151 -189 -199 -181
-225 12 -36 164 -182 247 -237 90 -59 192 -113 265 -140 51 -19 51 -19 86 2
132 79 371 308 492 471 64 86 186 295 172 295 -3 0 -36 -32 -74 -72 -117 -124
-185 -187 -286 -269 -136 -109 -263 -189 -302 -189 -22 0 -173 101 -214 144
-33 34 -34 36 -17 61 40 60 211 252 360 401 170 170 304 286 417 361 98 65 94
69 -26 19z"/>
<path d="M778 1733 c7 -3 16 -2 19 1 4 3 -2 6 -13 5 -11 0 -14 -3 -6 -6z"/>
<path d="M695 1723 c-16 -2 -57 -10 -91 -18 -33 -8 -75 -15 -92 -15 -18 0 -32
-4 -32 -8 0 -4 -8 -8 -17 -9 -10 -1 -34 -5 -53 -10 l-35 -9 3 -59 c4 -76 27
-191 54 -275 27 -84 78 -192 88 -188 5 2 58 49 118 105 l110 103 -44 85 c-24
47 -44 92 -44 99 0 17 59 55 140 89 36 16 73 32 82 38 10 5 24 9 32 9 8 0 21
6 28 13 7 6 29 13 48 15 19 1 49 9 65 16 17 7 37 16 45 19 8 3 -21 5 -65 5
-68 -1 -73 -2 -35 -8 44 -7 44 -7 -18 -8 -39 -1 -72 -8 -88 -18 -13 -9 -27
-14 -31 -10 -3 3 -1 6 5 6 7 0 12 6 12 14 0 9 13 16 33 19 17 2 1 4 -38 5 -45
0 -63 -2 -50 -8 19 -7 19 -8 1 -15 -10 -5 -21 -3 -25 2 -8 12 -66 21 -106 16z
m55 -13 c12 -8 11 -10 -7 -10 -13 0 -23 5 -23 10 0 13 11 13 30 0z m-57 -7
c-7 -2 -19 -2 -25 0 -7 3 -2 5 12 5 14 0 19 -2 13 -5z"/>
<path d="M1979 1358 c-19 -35 -36 -67 -38 -73 -2 -5 -7 -12 -10 -15 -3 -3 -20
-25 -36 -50 -110 -165 -254 -347 -368 -463 -92 -93 -249 -229 -292 -252 -32
-18 -34 -18 -121 9 -101 31 -223 87 -304 139 -30 20 -57 34 -59 32 -9 -10 88
-125 181 -216 66 -65 201 -162 271 -195 42 -20 40 -21 158 74 196 158 383 393
498 625 76 154 180 447 158 447 -2 0 -19 -28 -38 -62z"/>
</g>
</svg>
